<svg version="1.1" id="Layer_1" xmlns="http://www.w3.org/2000/svg" xmlns:xlink="http://www.w3.org/1999/xlink" x="0px" y="0px"
	 width="100%" viewBox="0 0 150 150" enable-background="new 0 0 150 150" xml:space="preserve">
<path fill="#E2E2E0" opacity="1.000000" stroke="none" 
	d="
M109.000000,1.000000 
	C122.937202,1.000000 136.874405,1.000000 151.000000,1.000000 
	C151.000000,19.353798 151.000000,37.708241 150.652496,56.490791 
	C149.139206,55.823669 147.846039,54.834694 146.828857,53.615479 
	C141.372223,47.075085 140.622574,38.446484 137.030289,31.050852 
	C135.847992,28.616764 136.490387,25.358210 135.817505,22.593714 
	C135.346527,20.658796 134.516174,17.950260 133.057800,17.264706 
	C126.477264,14.171329 121.913048,7.791501 114.285873,6.276948 
	C112.254723,5.873616 110.747673,2.830912 109.000000,1.000000 
z"/>
<path fill="#E8E9E7" opacity="1.000000" stroke="none" 
	d="
M137.000000,151.000000 
	C101.979103,151.000000 66.958206,151.000000 31.515285,150.640701 
	C35.054485,145.602600 43.872524,143.123352 49.245197,145.090729 
	C52.068211,146.124466 55.010952,147.331940 57.490547,143.776642 
	C73.702003,148.262207 89.080383,147.207352 104.019333,140.609924 
	C105.541023,141.508438 107.044579,142.034897 108.548126,142.561356 
	C108.635307,140.873688 108.722488,139.186005 109.022141,137.264542 
	C111.159729,135.699051 113.084854,134.367355 115.025169,133.434402 
	C116.726158,134.531586 118.374039,135.382294 120.125183,135.818222 
	C120.547234,135.923279 121.938202,134.276962 121.818184,134.077652 
	C120.918106,132.583023 119.750923,131.249237 118.820320,129.562378 
	C120.973526,127.146072 122.973755,125.032509 124.981186,123.338203 
	C125.848465,125.479485 126.542084,128.567062 127.596413,128.695587 
	C133.233200,129.382706 132.044098,131.684250 129.678192,134.850082 
	C126.821587,138.672485 127.498871,140.468704 132.156769,140.941467 
	C135.758163,141.306976 137.114441,143.129578 137.006332,146.506348 
	C136.958420,148.002762 136.999390,149.502029 137.000000,151.000000 
z"/>
<path fill="#E2E2E0" opacity="1.000000" stroke="none" 
	d="
M1.000000,54.000000 
	C1.000000,36.414230 1.000000,18.828461 1.000000,1.000000 
	C15.019961,1.000000 29.041323,1.000000 43.443970,1.372855 
	C39.062199,2.840406 34.828537,4.678988 32.704163,9.551247 
	C32.598339,9.793957 32.161304,9.910404 31.861059,10.047452 
	C27.922663,11.845144 26.285751,17.199980 20.859943,16.969925 
	C19.978724,16.932562 18.573008,19.274948 18.132002,20.735458 
	C16.854235,24.967125 16.049952,29.340452 14.819783,33.588669 
	C14.489406,34.729580 13.474062,36.241379 12.477162,36.518623 
	C8.741694,37.557495 8.209766,40.557514 8.091127,43.479092 
	C7.883883,48.582672 4.645964,51.363811 1.000000,54.000000 
z"/>
<path fill="#E4E5E2" opacity="1.000000" stroke="none" 
	d="
M151.000000,84.000000 
	C151.000000,106.333366 151.000000,128.666733 151.000000,151.000000 
	C147.936035,151.000000 144.954590,151.000000 141.537659,150.609329 
	C140.875473,146.857971 141.826447,142.644974 140.152344,140.331787 
	C137.487701,136.649918 138.240799,134.043915 140.052689,130.861816 
	C141.682755,127.999039 141.151199,125.846840 137.992844,124.434662 
	C137.204453,124.082153 136.647339,123.212379 135.261688,121.892258 
	C136.202179,121.435516 136.838455,121.204048 137.392380,120.845398 
	C142.484085,117.548592 144.217682,105.526306 140.203125,100.968452 
	C139.723282,100.423668 138.749237,100.314148 137.662262,99.972534 
	C137.092834,99.916534 136.865417,99.890884 136.725067,99.510612 
	C137.265137,97.769363 137.718140,96.382751 138.458832,94.941765 
	C138.738998,94.222397 138.731491,93.557388 138.681061,92.564117 
	C138.782501,91.823189 138.926865,91.410515 139.405640,90.933990 
	C140.164642,89.913940 140.589233,88.957748 141.383423,87.995010 
	C144.835342,86.658989 147.917664,85.329491 151.000000,84.000000 
z"/>
<path fill="#E5E6E3" opacity="1.000000" stroke="none" 
	d="
M52.000000,1.000001 
	C56.689255,1.000000 61.378510,1.000000 66.482529,1.368390 
	C65.598907,2.499477 64.373405,3.455758 62.984707,3.978524 
	C61.008186,4.722578 58.650295,4.960031 59.969757,8.383226 
	C57.220306,9.852145 54.610504,10.981787 51.654427,12.144825 
	C49.128796,13.423216 46.949436,14.668211 44.437523,15.978899 
	C40.050930,19.314444 35.996883,22.584295 31.637871,25.996090 
	C30.249247,27.770613 29.165594,29.403193 28.045294,31.031288 
	C28.008648,31.026804 28.041889,31.092737 27.754219,31.265486 
	C25.998835,33.632393 24.531122,35.826550 22.787373,38.044495 
	C22.392426,38.378681 22.273516,38.689091 22.034874,39.306618 
	C21.601873,40.406319 21.288605,41.198906 20.658588,42.170601 
	C17.610718,51.899532 14.879596,61.449348 12.069738,71.248032 
	C11.943656,71.664352 11.896310,71.831802 11.498289,71.950790 
	C5.044248,68.902901 4.815073,66.965332 9.376447,61.880199 
	C10.324674,60.823093 10.813598,58.346493 10.245130,57.105328 
	C7.289215,50.651508 9.476800,42.485886 15.460295,38.836452 
	C16.081699,38.457455 16.701941,37.734375 16.894196,37.050476 
	C17.990284,33.151451 19.016928,29.230183 19.948032,25.288332 
	C20.732370,21.967817 22.578798,20.249104 26.107910,19.886402 
	C27.698467,19.722933 29.841812,18.740227 30.571922,17.464144 
	C33.918346,11.615289 38.790157,8.483362 45.251114,6.752042 
	C47.829395,6.061151 49.769428,2.988454 52.000000,1.000001 
z"/>
<path fill="#E7E7E5" opacity="1.000000" stroke="none" 
	d="
M14.999999,151.000000 
	C13.285625,151.000000 11.571250,151.000000 9.471214,150.644318 
	C10.930835,146.780197 12.488697,143.079010 14.684103,139.805359 
	C18.665255,133.868927 17.234043,128.137405 12.971043,123.867256 
	C7.497355,118.384399 8.127718,112.302887 9.979957,106.401093 
	C11.507308,101.534508 11.202869,97.181801 10.448286,92.431313 
	C10.125326,90.398125 11.345052,88.119896 11.940756,86.314468 
	C12.795847,89.115707 13.573997,91.555481 14.300200,94.327415 
	C14.259058,95.107414 14.269863,95.555244 14.250711,96.359497 
	C18.870262,108.781799 24.003767,120.560997 33.341850,129.791656 
	C31.102621,131.418976 29.029907,132.688293 27.428419,134.398819 
	C25.685860,136.260025 24.416128,138.557281 22.877306,140.617416 
	C20.277636,144.097778 17.628389,147.541092 14.999999,151.000000 
z"/>
<path fill="#E5E6E3" opacity="1.000000" stroke="none" 
	d="
M11.863813,85.953003 
	C11.345052,88.119896 10.125326,90.398125 10.448286,92.431313 
	C11.202869,97.181801 11.507308,101.534508 9.979957,106.401093 
	C8.127718,112.302887 7.497355,118.384399 12.971043,123.867256 
	C17.234043,128.137405 18.665255,133.868927 14.684103,139.805359 
	C12.488697,143.079010 10.930835,146.780197 9.042776,150.644318 
	C6.405432,151.000000 3.810863,151.000000 1.000000,151.000000 
	C1.000000,147.992889 1.000000,144.983017 1.371729,141.441696 
	C9.413536,137.710617 9.412991,137.710648 9.005406,129.651169 
	C8.988795,129.322678 9.012510,128.992233 8.997862,128.663574 
	C8.750373,123.111061 6.818309,121.019424 1.000000,120.000000 
	C1.000000,113.645599 1.000000,107.291206 1.360452,100.423325 
	C2.745573,98.264870 5.021551,95.705734 4.594567,95.121277 
	C1.512200,90.902061 3.839871,86.696442 4.161554,82.585335 
	C4.520560,77.997231 6.924191,75.170326 12.181709,76.247276 
	C12.357818,76.661133 12.428512,76.826569 12.393187,77.361496 
	C12.357036,78.489746 12.426905,79.248505 12.418539,80.375122 
	C12.332150,81.494316 12.323996,82.245636 12.169710,83.360321 
	C12.074891,84.501915 12.126204,85.280136 12.097479,86.036827 
	C12.017440,86.015289 11.863813,85.953003 11.863813,85.953003 
z"/>
<path fill="#E5E6E3" opacity="1.000000" stroke="none" 
	d="
M151.000000,83.583336 
	C147.917664,85.329491 144.835342,86.658989 141.205078,87.741280 
	C140.304138,87.285042 139.951141,87.076004 139.529114,86.479263 
	C139.629639,85.061516 139.799225,84.031456 140.336365,82.925491 
	C141.136154,81.233070 141.568375,79.616531 142.154266,77.650818 
	C143.064957,74.833382 144.331497,72.135490 139.795151,71.711639 
	C139.623077,71.013702 139.573380,70.601868 139.865265,69.960114 
	C141.107437,67.247231 142.381180,64.696136 138.906097,62.674057 
	C138.857788,61.910164 138.881119,61.471310 139.270813,60.953781 
	C142.571350,58.151089 140.218231,55.933971 139.023132,53.520576 
	C138.185516,51.829098 137.701065,49.966236 136.992798,48.206524 
	C135.247070,43.869251 133.726257,39.406067 131.526245,35.309711 
	C130.907578,34.157753 128.249924,34.100853 126.530754,33.501358 
	C126.533997,33.461037 126.453545,33.452587 126.574158,33.092484 
	C125.748421,31.853336 124.802063,30.974297 123.900421,30.077579 
	C123.945137,30.059904 123.911247,30.149897 123.840004,29.913795 
	C123.615601,29.369909 123.381760,29.146618 122.885918,28.782280 
	C122.755905,28.184887 122.807190,27.813036 122.888992,27.031378 
	C122.437248,22.808517 121.192505,20.040018 116.351746,21.891104 
	C116.175323,21.826094 116.012840,21.486963 116.256348,21.131811 
	C118.050606,16.015263 114.156181,14.367435 111.277893,13.048819 
	C107.819649,11.464510 103.810326,11.080831 100.029045,10.223901 
	C99.967949,10.210055 99.772308,10.789829 99.270401,11.078550 
	C97.547661,10.539979 96.193985,10.015443 94.856529,9.106028 
	C93.207329,7.169730 91.541893,5.618311 89.876465,4.066894 
	C88.918549,5.320899 87.960640,6.574903 86.586182,7.891049 
	C84.497498,8.069704 82.825340,8.186218 81.108093,7.976297 
	C81.043190,7.431064 81.023384,7.212266 80.997116,6.629847 
	C80.327103,4.510815 79.663551,2.755407 79.000000,1.000000 
	C84.022095,1.000000 89.044182,1.000000 94.583603,1.365991 
	C99.250465,3.803180 103.314247,6.073949 107.568336,7.901812 
	C115.169922,11.167990 122.939850,14.558483 127.724930,21.441885 
	C132.162231,27.824986 135.211716,35.175598 138.817566,42.128571 
	C139.098022,42.669392 138.791794,43.494671 139.022415,44.084461 
	C140.235092,47.186001 141.761520,50.184444 142.730209,53.355778 
	C143.537827,55.999840 144.529327,58.997665 144.007446,61.545479 
	C143.142395,65.768494 146.591293,76.477936 150.510895,78.927795 
	C150.638947,79.007835 150.835419,78.978401 151.000000,79.000000 
	C151.000000,80.388893 151.000000,81.777779 151.000000,83.583336 
z"/>
<path fill="#E4E5E2" opacity="1.000000" stroke="none" 
	d="
M12.076296,75.998856 
	C6.924191,75.170326 4.520560,77.997231 4.161554,82.585335 
	C3.839871,86.696442 1.512200,90.902061 4.594567,95.121277 
	C5.021551,95.705734 2.745573,98.264870 1.360452,99.954926 
	C1.000000,84.979103 1.000000,69.958214 1.000000,54.468658 
	C4.645964,51.363811 7.883883,48.582672 8.091127,43.479092 
	C8.209766,40.557514 8.741694,37.557495 12.477162,36.518623 
	C13.474062,36.241379 14.489406,34.729580 14.819783,33.588669 
	C16.049952,29.340452 16.854235,24.967125 18.132002,20.735458 
	C18.573008,19.274948 19.978724,16.932562 20.859943,16.969925 
	C26.285751,17.199980 27.922663,11.845144 31.861059,10.047452 
	C32.161304,9.910404 32.598339,9.793957 32.704163,9.551247 
	C34.828537,4.678988 39.062199,2.840406 43.912628,1.372855 
	C46.370556,1.000000 48.741116,1.000000 51.555836,1.000001 
	C49.769428,2.988454 47.829395,6.061151 45.251114,6.752042 
	C38.790157,8.483362 33.918346,11.615289 30.571922,17.464144 
	C29.841812,18.740227 27.698467,19.722933 26.107910,19.886402 
	C22.578798,20.249104 20.732370,21.967817 19.948032,25.288332 
	C19.016928,29.230183 17.990284,33.151451 16.894196,37.050476 
	C16.701941,37.734375 16.081699,38.457455 15.460295,38.836452 
	C9.476800,42.485886 7.289215,50.651508 10.245130,57.105328 
	C10.813598,58.346493 10.324674,60.823093 9.376447,61.880199 
	C4.815073,66.965332 5.044248,68.902901 11.582312,72.217636 
	C12.119355,72.688881 12.221702,72.844810 12.359749,73.379730 
	C12.289066,74.505440 12.182681,75.252151 12.076296,75.998856 
z"/>
<path fill="#E4E5E2" opacity="1.000000" stroke="none" 
	d="
M151.000000,78.536812 
	C150.835419,78.978401 150.638947,79.007835 150.510895,78.927795 
	C146.591293,76.477936 143.142395,65.768494 144.007446,61.545479 
	C144.529327,58.997665 143.537827,55.999840 142.730209,53.355778 
	C141.761520,50.184444 140.235092,47.186001 139.022415,44.084461 
	C138.791794,43.494671 139.098022,42.669392 138.817566,42.128571 
	C135.211716,35.175598 132.162231,27.824986 127.724930,21.441885 
	C122.939850,14.558483 115.169922,11.167990 107.568336,7.901812 
	C103.314247,6.073949 99.250465,3.803180 95.050461,1.365991 
	C99.356903,1.000000 103.713799,1.000000 108.535355,1.000000 
	C110.747673,2.830912 112.254723,5.873616 114.285873,6.276948 
	C121.913048,7.791501 126.477264,14.171329 133.057800,17.264706 
	C134.516174,17.950260 135.346527,20.658796 135.817505,22.593714 
	C136.490387,25.358210 135.847992,28.616764 137.030289,31.050852 
	C140.622574,38.446484 141.372223,47.075085 146.828857,53.615479 
	C147.846039,54.834694 149.139206,55.823669 150.652496,56.959450 
	C151.000000,58.714359 151.000000,60.428715 150.671173,62.626945 
	C150.561569,64.073875 150.780777,65.036942 151.000000,66.000000 
	C151.000000,70.024544 151.000000,74.049088 151.000000,78.536812 
z"/>
<path fill="#E8E8E6" opacity="1.000000" stroke="none" 
	d="
M138.004272,100.002876 
	C138.749237,100.314148 139.723282,100.423668 140.203125,100.968452 
	C144.217682,105.526306 142.484085,117.548592 137.392380,120.845398 
	C136.838455,121.204048 136.202179,121.435516 135.261688,121.892258 
	C136.647339,123.212379 137.204453,124.082153 137.992844,124.434662 
	C141.151199,125.846840 141.682755,127.999039 140.052689,130.861816 
	C138.240799,134.043915 137.487701,136.649918 140.152344,140.331787 
	C141.826447,142.644974 140.875473,146.857971 141.051086,150.609329 
	C139.933334,151.000000 138.866653,151.000000 137.399994,151.000000 
	C136.999390,149.502029 136.958420,148.002762 137.006332,146.506348 
	C137.114441,143.129578 135.758163,141.306976 132.156769,140.941467 
	C127.498871,140.468704 126.821587,138.672485 129.678192,134.850082 
	C132.044098,131.684250 133.233200,129.382706 127.596413,128.695587 
	C126.542084,128.567062 125.848465,125.479485 125.036064,123.078903 
	C125.548943,121.877571 126.014137,121.354797 126.870239,120.850922 
	C129.175095,119.563095 131.398529,118.537682 132.914841,116.869507 
	C134.392609,115.243729 134.474228,113.219421 131.511017,112.504128 
	C132.068115,111.461983 132.526566,110.731087 133.336700,109.938011 
	C135.127014,106.584846 136.565643,103.293861 138.004272,100.002876 
z"/>
<path fill="#E9E9E7" opacity="1.000000" stroke="none" 
	d="
M15.466861,151.000000 
	C17.628389,147.541092 20.277636,144.097778 22.877306,140.617416 
	C24.416128,138.557281 25.685860,136.260025 27.428419,134.398819 
	C29.029907,132.688293 31.102621,131.418976 33.561142,129.920609 
	C34.491524,130.260178 34.828495,130.634430 35.141285,131.270355 
	C35.413525,131.680527 35.709946,131.829041 36.132057,132.283600 
	C37.484653,133.393997 38.711567,134.198364 40.016930,135.290771 
	C40.731583,136.246948 41.367790,136.915085 42.330460,137.720215 
	C43.106335,137.755280 43.555748,137.653351 44.363873,137.659241 
	C48.843025,139.760986 52.963474,141.754929 57.083920,143.748856 
	C55.010952,147.331940 52.068211,146.124466 49.245197,145.090729 
	C43.872524,143.123352 35.054485,145.602600 31.046627,150.640701 
	C25.977907,151.000000 20.955816,151.000000 15.466861,151.000000 
z"/>
<path fill="#E4E5E2" opacity="1.000000" stroke="none" 
	d="
M1.000000,120.468536 
	C6.818309,121.019424 8.750373,123.111061 8.997862,128.663574 
	C9.012510,128.992233 8.988795,129.322678 9.005406,129.651169 
	C9.412991,137.710648 9.413536,137.710617 1.371729,140.955124 
	C1.000000,134.312347 1.000000,127.624710 1.000000,120.468536 
z"/>
<path fill="#E8E9E7" opacity="1.000000" stroke="none" 
	d="
M78.539368,1.000000 
	C79.663551,2.755407 80.327103,4.510815 80.703796,6.487052 
	C79.278160,6.138391 78.139381,5.568900 76.930092,4.650257 
	C74.000839,1.737333 72.297989,3.169189 70.579376,5.996049 
	C68.107613,6.625024 66.055321,7.254488 63.641342,8.006798 
	C62.518726,8.178687 61.757801,8.227730 60.793259,8.148996 
	C60.589642,8.021222 60.109406,8.043949 60.109406,8.043949 
	C58.650295,4.960031 61.008186,4.722578 62.984707,3.978524 
	C64.373405,3.455758 65.598907,2.499477 66.948639,1.368390 
	C70.692909,1.000000 74.385818,1.000000 78.539368,1.000000 
z"/>
<path fill="#E2E2E0" opacity="1.000000" stroke="none" 
	d="
M151.000000,65.625000 
	C150.780777,65.036942 150.561569,64.073875 150.671173,63.055405 
	C151.000000,63.750000 151.000000,64.500000 151.000000,65.625000 
z"/>
<path fill="#151514" opacity="1.000000" stroke="none" 
	d="
M59.969757,8.383226 
	C60.109406,8.043949 60.589642,8.021222 60.863205,8.449417 
	C62.419876,8.644274 63.702988,8.410935 65.239975,8.102177 
	C65.666336,8.064482 65.838821,8.102209 66.241974,8.365898 
	C69.061562,9.250286 69.512772,10.685739 67.779060,12.914619 
	C67.544891,12.998982 67.070885,13.151033 66.886703,12.891985 
	C65.800812,13.011453 64.899109,13.389969 63.689499,13.902724 
	C62.938129,14.070626 62.494659,14.104289 61.853691,13.882089 
	C60.103905,14.381954 58.551617,15.137683 56.699677,16.090765 
	C47.093891,20.157475 38.978577,25.616188 32.651421,34.027184 
	C26.001837,42.448437 21.882380,51.731277 19.344059,62.120453 
	C19.089520,63.588593 19.081629,64.793732 18.941967,66.342819 
	C18.779163,67.414284 18.748135,68.141792 18.528435,69.212914 
	C18.314234,75.031967 18.288702,80.507408 18.222301,86.387344 
	C18.686573,89.397873 19.021496,92.050720 19.723112,94.602745 
	C26.966707,120.950317 44.057697,136.511368 71.065842,141.543365 
	C72.431923,141.716003 73.724213,141.573090 75.459167,141.345947 
	C109.568596,141.597717 131.813309,112.267159 134.028549,85.588379 
	C134.195297,82.078957 134.247421,78.975243 134.417358,75.470947 
	C134.084198,73.031120 133.633224,70.991859 133.120331,68.550964 
	C132.770538,66.741142 132.482681,65.332962 132.129181,63.559738 
	C132.092255,62.461998 132.120987,61.729309 132.221405,60.653343 
	C132.136047,59.872299 131.979034,59.434532 131.842072,58.654793 
	C131.295151,56.851837 130.728165,55.390854 130.148621,53.555855 
	C128.861542,50.295765 127.787254,47.300175 126.278580,44.542202 
	C118.961113,31.165277 109.162842,20.516584 93.843491,15.688338 
	C93.097374,15.383843 92.550438,15.280475 91.720398,15.007683 
	C91.009293,14.763194 90.581306,14.688128 89.879349,14.429789 
	C88.736801,14.173339 87.868217,14.100164 86.657364,13.864590 
	C84.796097,13.395570 83.277115,13.088947 81.809883,12.792771 
	C81.565491,11.121758 81.359337,9.712245 81.153191,8.302732 
	C82.825340,8.186218 84.497498,8.069704 86.991478,7.983970 
	C90.155640,8.506803 92.497971,8.998855 94.840302,9.490908 
	C96.193985,10.015443 97.547661,10.539979 99.430649,11.353132 
	C105.310913,14.923488 110.661873,18.205225 116.012840,21.486963 
	C116.012840,21.486963 116.175323,21.826094 116.517731,22.149685 
	C118.859589,24.129244 120.859032,25.785213 122.858482,27.441183 
	C122.807190,27.813036 122.755905,28.184887 122.885895,29.049973 
	C123.348541,29.745436 123.629890,29.947666 123.911247,30.149897 
	C123.911247,30.149897 123.945137,30.059904 123.962982,30.395889 
	C124.805077,31.638781 125.629311,32.545681 126.453545,33.452587 
	C126.453545,33.452587 126.533997,33.461037 126.676437,33.804451 
	C130.847397,43.109394 134.875931,52.070923 138.904449,61.032452 
	C138.881119,61.471310 138.857788,61.910164 138.830826,63.082806 
	C139.059357,65.941071 139.291519,68.065552 139.523682,70.190033 
	C139.573380,70.601868 139.623077,71.013702 139.733459,72.138069 
	C139.904007,74.567131 140.013885,76.283669 140.039230,78.410767 
	C139.959396,80.214691 139.964096,81.608040 139.968781,83.001389 
	C139.799225,84.031456 139.629639,85.061516 139.390717,86.800781 
	C139.237991,88.672607 139.154617,89.835228 139.071228,90.997849 
	C138.926865,91.410515 138.782501,91.823189 138.500488,92.782349 
	C138.298950,93.884605 138.235046,94.440369 138.171143,94.996132 
	C137.718140,96.382751 137.265137,97.769363 136.458282,99.757195 
	C135.064636,103.572334 134.024826,106.786263 132.985016,110.000191 
	C132.526566,110.731087 132.068115,111.461983 131.301270,112.745987 
	C129.488373,115.810074 127.983849,118.321053 126.479340,120.832031 
	C126.014137,121.354797 125.548943,121.877571 125.028870,122.659637 
	C122.973755,125.032509 120.973526,127.146072 118.534752,129.673462 
	C117.067459,131.070068 116.038719,132.052872 115.009972,133.035660 
	C113.084854,134.367355 111.159729,135.699051 108.697510,137.390900 
	C106.774017,138.579987 105.387611,139.408920 104.001205,140.237854 
	C89.080383,147.207352 73.702003,148.262207 57.490547,143.776642 
	C52.963474,141.754929 48.843025,139.760986 44.300484,137.397675 
	C43.309780,136.683838 42.741173,136.339401 41.964256,135.751129 
	C41.150120,135.339096 40.544300,135.170914 39.938477,135.002731 
	C38.711567,134.198364 37.484653,133.393997 36.043549,132.081863 
	C35.661854,131.322464 35.440559,131.133987 35.165466,131.008667 
	C34.828495,130.634430 34.491524,130.260178 33.935257,129.756989 
	C24.003767,120.560997 18.870262,108.781799 14.509982,96.309334 
	C14.650187,95.266914 14.501166,94.631081 14.352144,93.995247 
	C13.573997,91.555481 12.795847,89.115707 11.940756,86.314468 
	C11.863813,85.953003 12.017440,86.015289 12.400546,85.961700 
	C12.627715,84.937729 12.471778,83.967346 12.315842,82.996964 
	C12.323996,82.245636 12.332150,81.494316 12.691206,80.292648 
	C12.861139,78.892204 12.680172,77.942108 12.499206,76.992004 
	C12.428512,76.826569 12.357818,76.661133 12.181709,76.247276 
	C12.182681,75.252151 12.289066,74.505440 12.623302,73.320786 
	C12.616927,72.254944 12.382701,71.627052 12.148475,70.999168 
	C14.879596,61.449348 17.610718,51.899532 20.957430,42.134373 
	C21.766884,40.945854 21.960747,39.972679 22.154610,38.999500 
	C22.273516,38.689091 22.392426,38.378681 23.130791,37.994675 
	C25.180794,35.644962 26.611340,33.368851 28.041889,31.092735 
	C28.041889,31.092737 28.008648,31.026804 28.396481,30.973680 
	C29.837156,29.231752 30.889997,27.542950 31.942841,25.854147 
	C35.996883,22.584295 40.050930,19.314444 44.823349,15.997099 
	C47.694717,14.670214 49.847710,13.390821 52.000698,12.111428 
	C54.610504,10.981787 57.220306,9.852145 59.969757,8.383226 
z"/>
<path fill="#E8E8E6" opacity="1.000000" stroke="none" 
	d="
M115.025169,133.434402 
	C116.038719,132.052872 117.067459,131.070068 118.381775,129.976196 
	C119.750923,131.249237 120.918106,132.583023 121.818184,134.077652 
	C121.938202,134.276962 120.547234,135.923279 120.125183,135.818222 
	C118.374039,135.382294 116.726158,134.531586 115.025169,133.434402 
z"/>
<path fill="#E8E8E6" opacity="1.000000" stroke="none" 
	d="
M104.019333,140.609924 
	C105.387611,139.408920 106.774017,138.579987 108.485039,137.624695 
	C108.722488,139.186005 108.635307,140.873688 108.548126,142.561356 
	C107.044579,142.034897 105.541023,141.508438 104.019333,140.609924 
z"/>
<path fill="#E8E9E7" opacity="1.000000" stroke="none" 
	d="
M133.336700,109.938011 
	C134.024826,106.786263 135.064636,103.572334 136.371216,100.111824 
	C136.865417,99.890884 137.092834,99.916534 137.662262,99.972534 
	C136.565643,103.293861 135.127014,106.584846 133.336700,109.938011 
z"/>
<path fill="#E8E9E7" opacity="1.000000" stroke="none" 
	d="
M139.405640,90.933990 
	C139.154617,89.835228 139.237991,88.672607 139.459747,87.188477 
	C139.951141,87.076004 140.304138,87.285042 140.835480,87.747818 
	C140.589233,88.957748 140.164642,89.913940 139.405640,90.933990 
z"/>
<path fill="#E8E9E7" opacity="1.000000" stroke="none" 
	d="
M138.458832,94.941765 
	C138.235046,94.440369 138.298950,93.884605 138.543427,93.110611 
	C138.731491,93.557388 138.738998,94.222397 138.458832,94.941765 
z"/>
<path fill="#161615" opacity="1.000000" stroke="none" 
	d="
M27.754219,31.265484 
	C26.611340,33.368851 25.180794,35.644962 23.406828,37.970894 
	C24.531122,35.826550 25.998835,33.632393 27.754219,31.265484 
z"/>
<path fill="#161615" opacity="1.000000" stroke="none" 
	d="
M51.654427,12.144825 
	C49.847710,13.390821 47.694717,14.670214 45.155899,15.931406 
	C46.949436,14.668211 49.128796,13.423216 51.654427,12.144825 
z"/>
<path fill="#161615" opacity="1.000000" stroke="none" 
	d="
M31.637871,25.996090 
	C30.889997,27.542950 29.837156,29.231752 28.433128,30.978165 
	C29.165594,29.403193 30.249247,27.770613 31.637871,25.996090 
z"/>
<path fill="#161615" opacity="1.000000" stroke="none" 
	d="
M22.034874,39.306618 
	C21.960747,39.972679 21.766884,40.945854 21.274179,41.955261 
	C21.288605,41.198906 21.601873,40.406319 22.034874,39.306618 
z"/>
<path fill="#161615" opacity="1.000000" stroke="none" 
	d="
M12.069738,71.248032 
	C12.382701,71.627052 12.616927,72.254944 12.587601,72.941780 
	C12.221702,72.844810 12.119355,72.688881 11.932987,72.266106 
	C11.896310,71.831802 11.943656,71.664352 12.069738,71.248032 
z"/>
<path fill="#161615" opacity="1.000000" stroke="none" 
	d="
M14.300199,94.327415 
	C14.501166,94.631081 14.650187,95.266914 14.539938,95.952911 
	C14.269863,95.555244 14.259058,95.107414 14.300199,94.327415 
z"/>
<path fill="#161615" opacity="1.000000" stroke="none" 
	d="
M12.169710,83.360321 
	C12.471778,83.967346 12.627715,84.937729 12.480585,85.983238 
	C12.126204,85.280136 12.074891,84.501915 12.169710,83.360321 
z"/>
<path fill="#161615" opacity="1.000000" stroke="none" 
	d="
M12.393187,77.361496 
	C12.680172,77.942108 12.861139,78.892204 12.769440,79.924782 
	C12.426905,79.248505 12.357036,78.489746 12.393187,77.361496 
z"/>
<path fill="#ECEEED" opacity="1.000000" stroke="none" 
	d="
M67.070885,13.151033 
	C67.070885,13.151033 67.544891,12.998982 68.186020,12.985968 
	C72.486862,13.154654 70.564835,10.407331 70.973358,8.882969 
	C69.319344,8.635291 67.665329,8.387614 66.011314,8.139936 
	C65.838821,8.102209 65.666336,8.064482 64.994804,8.026770 
	C64.331512,7.979172 64.167267,7.931562 64.003029,7.883952 
	C66.055321,7.254488 68.107613,6.625024 70.785172,6.233924 
	C73.273827,5.981328 75.137215,5.490368 77.000610,4.999409 
	C78.139381,5.568900 79.278160,6.138391 80.710251,6.850676 
	C81.023384,7.212266 81.043190,7.431064 81.108093,7.976297 
	C81.359337,9.712245 81.565491,11.121758 81.809883,12.792771 
	C83.277115,13.088947 84.796097,13.395570 86.657867,14.109760 
	C87.000648,14.517330 86.999931,15.007670 86.668427,15.008875 
	C85.894936,15.012879 85.452950,15.015680 84.595474,15.012775 
	C79.155891,15.379874 77.868065,17.098576 79.638153,20.970419 
	C85.891602,34.649059 94.783821,46.516392 104.889229,57.518852 
	C105.637627,58.333679 107.653381,58.822418 108.661720,58.418552 
	C113.578224,56.449368 118.007980,57.008244 122.543205,59.647648 
	C125.566246,61.406994 128.964508,62.521614 132.194824,63.924789 
	C132.482681,65.332962 132.770538,66.741142 132.811600,68.456390 
	C131.961929,68.539894 131.359070,68.316307 130.414108,67.988365 
	C126.717430,63.893646 119.921371,66.264000 117.202850,60.954895 
	C117.025734,60.609013 115.576286,60.573158 114.933517,60.865486 
	C111.927887,62.232456 108.997635,63.765171 105.097992,65.708252 
	C102.689560,63.685528 100.274033,65.253510 98.240082,69.292976 
	C106.176231,69.292976 113.585258,69.292976 120.995224,69.664368 
	C122.151291,71.582733 123.037277,73.493034 124.523056,74.593658 
	C126.899956,76.354393 129.674835,77.577873 132.339493,79.060753 
	C132.856903,78.218857 133.578217,77.045189 134.299530,75.871521 
	C134.247421,78.975243 134.195297,82.078957 133.600647,85.600250 
	C132.208435,86.105034 131.358749,86.192245 130.100800,86.240677 
	C126.951729,86.497604 124.082512,86.378342 121.497658,87.178116 
	C116.591660,88.696068 112.232346,89.330528 108.809807,84.333511 
	C108.210098,83.457924 106.561371,83.346825 105.469124,82.750717 
	C104.152847,82.032333 102.824280,81.282631 101.667877,80.341499 
	C100.674355,79.532921 100.024063,78.303215 99.031952,77.492195 
	C96.343567,75.294510 93.554153,73.220428 91.107216,70.849197 
	C91.531303,67.300827 94.639862,63.735100 90.604965,60.414871 
	C91.116608,56.670231 91.562653,53.320862 92.002365,49.591095 
	C90.321434,45.523849 89.453545,41.193840 84.379478,39.659645 
	C76.989426,38.488338 76.985809,38.488338 76.987701,31.393772 
	C76.989616,24.256136 76.999725,17.118502 76.992142,9.745686 
	C76.851814,9.245818 76.725594,8.981134 76.599373,8.716450 
	C76.398735,9.078649 76.198090,9.440847 75.618362,10.026993 
	C75.099312,13.833026 74.959351,17.415112 74.474945,20.902153 
	C73.747604,19.667208 73.663628,18.238630 72.909248,17.457493 
	C71.871132,16.382557 70.326012,15.797258 68.690811,14.971149 
	C67.908356,14.591075 67.433205,14.242041 66.989960,13.708076 
	C67.021881,13.523147 67.070885,13.151033 67.070885,13.151033 
z"/>
<path fill="#E8E9E7" opacity="1.000000" stroke="none" 
	d="
M139.270813,60.953781 
	C134.875931,52.070923 130.847397,43.109394 126.673187,33.844769 
	C128.249924,34.100853 130.907578,34.157753 131.526245,35.309711 
	C133.726257,39.406067 135.247070,43.869251 136.992798,48.206524 
	C137.701065,49.966236 138.185516,51.829098 139.023132,53.520576 
	C140.218231,55.933971 142.571350,58.151089 139.270813,60.953781 
z"/>
<path fill="#E8E9E7" opacity="1.000000" stroke="none" 
	d="
M116.256348,21.131811 
	C110.661873,18.205225 105.310913,14.923488 99.799698,11.367168 
	C99.772308,10.789829 99.967949,10.210055 100.029045,10.223901 
	C103.810326,11.080831 107.819649,11.464510 111.277893,13.048819 
	C114.156181,14.367435 118.050606,16.015263 116.256348,21.131811 
z"/>
<path fill="#E8E9E7" opacity="1.000000" stroke="none" 
	d="
M94.856529,9.106028 
	C92.497971,8.998855 90.155640,8.506803 87.408020,7.921829 
	C87.960640,6.574903 88.918549,5.320899 89.876465,4.066894 
	C91.541893,5.618311 93.207329,7.169730 94.856529,9.106028 
z"/>
<path fill="#E8E9E7" opacity="1.000000" stroke="none" 
	d="
M122.888992,27.031378 
	C120.859032,25.785213 118.859589,24.129244 116.694153,22.214695 
	C121.192505,20.040018 122.437248,22.808517 122.888992,27.031378 
z"/>
<path fill="#E8E9E7" opacity="1.000000" stroke="none" 
	d="
M140.123749,78.000198 
	C140.013885,76.283669 139.904007,74.567131 139.855835,72.424171 
	C144.331497,72.135490 143.064957,74.833382 141.841431,77.650818 
	C140.957901,78.000069 140.540817,78.000137 140.123749,78.000198 
z"/>
<path fill="#E8E9E7" opacity="1.000000" stroke="none" 
	d="
M139.865265,69.960114 
	C139.291519,68.065552 139.059357,65.941071 138.902466,63.407837 
	C142.381180,64.696136 141.107437,67.247231 139.865265,69.960114 
z"/>
<path fill="#E8E9E7" opacity="1.000000" stroke="none" 
	d="
M140.039230,78.410767 
	C140.540817,78.000137 140.957901,78.000069 141.687790,78.000000 
	C141.568375,79.616531 141.136154,81.233070 140.336349,82.925491 
	C139.964096,81.608040 139.959396,80.214691 140.039230,78.410767 
z"/>
<path fill="#E8E9E7" opacity="1.000000" stroke="none" 
	d="
M126.574158,33.092484 
	C125.629311,32.545681 124.805077,31.638781 123.918274,30.413567 
	C124.802063,30.974297 125.748421,31.853336 126.574158,33.092484 
z"/>
<path fill="#E8E9E7" opacity="1.000000" stroke="none" 
	d="
M123.840004,29.913795 
	C123.629890,29.947666 123.348541,29.745436 123.067200,29.275513 
	C123.381760,29.146618 123.615601,29.369909 123.840004,29.913795 
z"/>
<path fill="#E8E9E7" opacity="1.000000" stroke="none" 
	d="
M126.870239,120.850922 
	C127.983849,118.321053 129.488373,115.810074 131.202621,113.057236 
	C134.474228,113.219421 134.392609,115.243729 132.914841,116.869507 
	C131.398529,118.537682 129.175095,119.563095 126.870239,120.850922 
z"/>
<path fill="#1B1B1A" opacity="1.000000" stroke="none" 
	d="
M40.016926,135.290771 
	C40.544300,135.170914 41.150120,135.339096 41.916817,136.013504 
	C42.053127,136.874222 42.028564,137.228729 42.004002,137.583221 
	C41.367790,136.915085 40.731583,136.246948 40.016926,135.290771 
z"/>
<path fill="#161615" opacity="1.000000" stroke="none" 
	d="
M42.330460,137.720215 
	C42.028564,137.228729 42.053127,136.874222 42.125130,136.257355 
	C42.741173,136.339401 43.309780,136.683838 43.941772,137.289841 
	C43.555748,137.653351 43.106335,137.755280 42.330460,137.720215 
z"/>
<path fill="#1B1B1A" opacity="1.000000" stroke="none" 
	d="
M35.141285,131.270355 
	C35.440559,131.133987 35.661854,131.322464 35.917862,131.775818 
	C35.709946,131.829041 35.413525,131.680527 35.141285,131.270355 
z"/>
<path fill="#EAECEA" opacity="1.000000" stroke="none" 
	d="
M76.930092,4.650257 
	C75.137215,5.490368 73.273827,5.981328 71.204636,6.234414 
	C72.297989,3.169189 74.000839,1.737333 76.930092,4.650257 
z"/>
<path fill="#161615" opacity="1.000000" stroke="none" 
	d="
M63.641342,8.006798 
	C64.167267,7.931562 64.331512,7.979172 64.740929,8.102190 
	C63.702988,8.410935 62.419876,8.644274 61.066818,8.577192 
	C61.757801,8.227730 62.518726,8.178687 63.641342,8.006798 
z"/>
<path fill="#ECEEED" opacity="1.000000" stroke="none" 
	d="
M18.263170,85.982849 
	C18.288702,80.507408 18.314234,75.031967 18.854893,69.422867 
	C21.450321,69.738670 23.542744,70.139748 25.606174,70.656570 
	C26.761482,70.945930 27.868736,71.427155 28.631828,71.894600 
	C26.808567,72.583984 25.351122,73.200714 23.587137,73.960358 
	C22.966869,74.684402 22.653139,75.265533 22.339409,75.846664 
	C22.901180,75.863358 23.462952,75.880051 24.490616,75.932800 
	C33.285191,75.893784 41.613873,75.818695 50.219727,75.796967 
	C50.311592,75.318344 50.126282,74.786362 49.601143,74.028320 
	C44.071869,73.541969 41.255821,68.907013 36.963692,67.048653 
	C37.021385,66.998192 37.123943,66.884262 37.427727,66.866905 
	C38.154343,66.232933 38.577171,65.616310 39.417656,64.999641 
	C41.890209,64.666290 43.945103,64.332993 46.391113,63.999840 
	C48.521473,63.666805 50.260715,63.333626 52.188385,63.174751 
	C52.917770,62.565937 53.458733,61.782818 53.999725,60.666420 
	C53.999737,59.888783 53.999714,59.444420 54.266762,58.746384 
	C55.728580,56.313751 56.923325,54.134789 58.476452,52.019543 
	C59.606277,53.803467 60.689663,55.454868 61.087234,57.257530 
	C62.052635,61.634815 63.421265,65.139145 69.065506,64.145226 
	C69.571915,64.056046 70.429779,65.962692 70.827103,67.192551 
	C70.327362,68.992477 70.124954,70.542282 69.525558,72.073227 
	C65.199532,73.612267 61.080933,74.817566 57.383045,76.805473 
	C50.794212,80.347504 44.459755,84.362740 37.629562,88.104553 
	C31.877514,86.933159 26.642561,83.740990 20.826351,86.791901 
	C19.848154,86.356712 19.055662,86.169777 18.263170,85.982849 
z"/>
<path fill="#E8E8E6" opacity="1.000000" stroke="none" 
	d="
M85.010956,15.018480 
	C85.452950,15.015680 85.894936,15.012879 86.888412,15.258923 
	C88.344368,15.209531 89.248840,14.911296 90.153313,14.613062 
	C90.581306,14.688128 91.009293,14.763194 91.768188,15.286969 
	C92.746948,15.786941 93.394806,15.838202 94.042664,15.889465 
	C109.162842,20.516584 118.961113,31.165277 126.278580,44.542202 
	C127.787254,47.300175 128.861542,50.295765 129.888824,53.748985 
	C130.368408,55.876347 131.095215,57.436554 131.822021,58.996765 
	C131.979034,59.434532 132.136047,59.872299 131.837128,60.646889 
	C129.837494,59.534981 127.717316,58.366470 126.852585,56.587662 
	C123.591133,49.878548 116.195068,46.005505 108.929008,47.489849 
	C105.259010,48.239574 102.921211,46.588257 102.024857,42.924782 
	C101.560883,41.028450 101.668030,38.442383 100.454872,37.372879 
	C94.657379,32.261890 93.033051,23.921356 86.306511,19.530275 
	C85.315300,18.883211 85.415649,16.564020 85.010956,15.018480 
z"/>
<path fill="#E8E8E6" opacity="1.000000" stroke="none" 
	d="
M66.958046,13.893005 
	C67.433205,14.242041 67.908356,14.591075 68.691544,15.345801 
	C68.999916,16.500935 69.000259,17.250376 68.958923,18.351707 
	C66.100533,24.643459 58.254307,26.781454 57.240234,34.118298 
	C57.195202,34.444118 56.376328,34.599510 56.071991,34.963219 
	C54.042370,37.388828 51.484337,39.585850 50.198982,42.366142 
	C48.622601,45.775948 46.908321,48.405693 42.939331,48.653584 
	C40.622383,47.412636 38.365841,46.518414 36.109295,45.624191 
	C36.600994,47.779907 37.177326,49.920876 37.556442,52.096214 
	C37.837307,53.707809 37.861752,55.364101 37.625320,57.000301 
	C36.499989,57.000080 35.749767,57.000038 34.954201,56.637329 
	C34.600189,55.700165 34.432617,54.811634 33.961021,54.599739 
	C29.225925,52.472176 29.586077,48.940048 30.785830,44.794556 
	C31.815012,41.238438 32.250778,37.510571 32.948975,33.858658 
	C38.978577,25.616188 47.093891,20.157475 57.041382,16.084873 
	C59.138893,15.300405 60.595043,14.719179 62.051189,14.137953 
	C62.494659,14.104289 62.938129,14.070626 64.062149,13.931655 
	C65.481148,13.848566 66.219597,13.870786 66.958046,13.893005 
z"/>
<path fill="#EAECEA" opacity="1.000000" stroke="none" 
	d="
M84.595474,15.012775 
	C85.415649,16.564020 85.315300,18.883211 86.306511,19.530275 
	C93.033051,23.921356 94.657379,32.261890 100.454872,37.372879 
	C101.668030,38.442383 101.560883,41.028450 102.024857,42.924782 
	C102.921211,46.588257 105.259010,48.239574 108.929008,47.489849 
	C116.195068,46.005505 123.591133,49.878548 126.852585,56.587662 
	C127.717316,58.366470 129.837494,59.534981 131.765472,60.990166 
	C132.120987,61.729309 132.092255,62.461998 132.129181,63.559738 
	C128.964508,62.521614 125.566246,61.406994 122.543205,59.647648 
	C118.007980,57.008244 113.578224,56.449368 108.661720,58.418552 
	C107.653381,58.822418 105.637627,58.333679 104.889229,57.518852 
	C94.783821,46.516392 85.891602,34.649059 79.638153,20.970419 
	C77.868065,17.098576 79.155891,15.379874 84.595474,15.012775 
z"/>
<path fill="#E1E2E2" opacity="1.000000" stroke="none" 
	d="
M18.222301,86.387344 
	C19.055662,86.169777 19.848154,86.356712 20.774918,87.196350 
	C21.227188,89.594765 21.575964,91.335533 21.856632,93.087212 
	C22.402281,96.492615 24.226534,98.172157 28.013279,97.923660 
	C28.968052,98.585617 29.694798,98.912621 30.239948,99.547134 
	C28.445742,100.620644 26.833132,101.386620 24.653097,102.422119 
	C26.636316,106.133339 28.514929,109.648811 30.543055,113.489960 
	C33.403614,116.821747 35.983292,119.967522 38.922012,122.731552 
	C39.619534,123.387619 41.520302,122.764404 42.900070,123.113586 
	C42.958824,124.010483 42.985111,124.523430 42.974854,125.401810 
	C43.186047,126.340263 43.270790,127.133835 43.704910,127.454643 
	C64.225548,142.619522 88.391205,142.129181 108.598206,127.633423 
	C109.177475,127.217888 108.705986,125.337624 109.091408,124.089111 
	C109.702858,124.002632 109.947350,123.967377 110.569138,124.000305 
	C112.181702,123.531517 113.754852,123.310722 114.599434,122.408157 
	C122.187325,114.299271 127.778290,105.067108 130.095184,93.672791 
	C130.483124,91.893425 130.705978,90.444649 131.093506,88.631287 
	C131.008469,87.604294 130.758759,86.941879 130.509048,86.279457 
	C131.358749,86.192245 132.208435,86.105034 133.486023,86.005951 
	C131.813309,112.267159 109.568596,141.597717 75.064888,141.251648 
	C73.149315,141.236984 72.070679,141.232391 70.992050,141.227814 
	C44.057697,136.511368 26.966707,120.950317 19.723112,94.602745 
	C19.021496,92.050720 18.686573,89.397873 18.222301,86.387344 
z"/>
<path fill="#EAEBEA" opacity="1.000000" stroke="none" 
	d="
M32.651421,34.027184 
	C32.250778,37.510571 31.815012,41.238438 30.785830,44.794556 
	C29.586077,48.940048 29.225925,52.472176 33.961021,54.599739 
	C34.432617,54.811634 34.600189,55.700165 34.580132,56.590858 
	C32.112873,56.238930 29.765999,54.920509 28.495275,58.078365 
	C27.085232,61.582451 24.382433,62.373886 20.653004,61.975376 
	C20.062193,61.916080 19.826452,61.886768 19.590710,61.857456 
	C21.882380,51.731277 26.001837,42.448437 32.651421,34.027184 
z"/>
<path fill="#E8E9E7" opacity="1.000000" stroke="none" 
	d="
M130.756195,68.092720 
	C131.359070,68.316307 131.961929,68.539894 132.873535,68.858040 
	C133.633224,70.991859 134.084198,73.031120 134.417358,75.470947 
	C133.578217,77.045189 132.856903,78.218857 132.339493,79.060753 
	C129.674835,77.577873 126.899956,76.354393 124.523056,74.593658 
	C123.037277,73.493034 122.151291,71.582733 121.431808,69.570168 
	C124.830368,68.767296 127.793282,68.430008 130.756195,68.092720 
z"/>
<path fill="#EAEBEA" opacity="1.000000" stroke="none" 
	d="
M28.997643,71.821938 
	C27.868736,71.427155 26.761482,70.945930 25.606174,70.656570 
	C23.542744,70.139748 21.450321,69.738670 19.043562,69.079254 
	C18.748135,68.141792 18.779163,67.414284 19.262997,66.343597 
	C20.143843,66.000290 20.571882,66.000145 21.394386,66.008804 
	C26.856768,67.864891 31.844553,69.135941 36.046680,64.175682 
	C36.208332,63.984859 36.675301,64.052689 37.001152,64.361931 
	C37.042854,65.443993 37.083401,66.164131 37.123943,66.884262 
	C37.123943,66.884262 37.021385,66.998192 36.617996,67.027756 
	C33.808952,68.645531 31.403297,70.233734 28.997643,71.821938 
z"/>
<path fill="#161615" opacity="1.000000" stroke="none" 
	d="
M66.241974,8.365898 
	C67.665329,8.387614 69.319344,8.635291 70.973358,8.882969 
	C70.564835,10.407331 72.486862,13.154654 68.420181,12.901604 
	C69.512772,10.685739 69.061562,9.250286 66.241974,8.365898 
z"/>
<path fill="#EAECEA" opacity="1.000000" stroke="none" 
	d="
M131.842072,58.654793 
	C131.095215,57.436554 130.368408,55.876347 129.901398,54.123005 
	C130.728165,55.390854 131.295151,56.851837 131.842072,58.654793 
z"/>
<path fill="#161615" opacity="1.000000" stroke="none" 
	d="
M61.853691,13.882090 
	C60.595043,14.719179 59.138893,15.300405 57.341038,15.887520 
	C58.551617,15.137683 60.103905,14.381954 61.853691,13.882090 
z"/>
<path fill="#1B1B1A" opacity="1.000000" stroke="none" 
	d="
M71.065842,141.543365 
	C72.070679,141.232391 73.149315,141.236984 74.622223,141.335876 
	C73.724213,141.573090 72.431923,141.716003 71.065842,141.543365 
z"/>
<path fill="#ECEEED" opacity="1.000000" stroke="none" 
	d="
M20.999924,66.000000 
	C20.571882,66.000145 20.143843,66.000290 19.394772,65.999649 
	C19.081629,64.793732 19.089520,63.588593 19.344059,62.120453 
	C19.826452,61.886768 20.062193,61.916080 20.650898,62.374676 
	C21.002548,63.869308 21.001236,64.934654 20.999924,66.000000 
z"/>
<path fill="#161615" opacity="1.000000" stroke="none" 
	d="
M66.989960,13.708076 
	C66.219597,13.870786 65.481148,13.848566 64.370049,13.797416 
	C64.899109,13.389969 65.800812,13.011453 66.886703,12.891985 
	C67.070885,13.151033 67.021881,13.523147 66.989960,13.708076 
z"/>
<path fill="#EAECEA" opacity="1.000000" stroke="none" 
	d="
M89.879349,14.429788 
	C89.248840,14.911296 88.344368,15.209531 87.219910,15.257718 
	C86.999931,15.007670 87.000648,14.517330 87.000145,14.272160 
	C87.868217,14.100164 88.736801,14.173339 89.879349,14.429788 
z"/>
<path fill="#EAECEA" opacity="1.000000" stroke="none" 
	d="
M93.843491,15.688337 
	C93.394806,15.838202 92.746948,15.786941 92.051300,15.456392 
	C92.550438,15.280475 93.097374,15.383843 93.843491,15.688337 
z"/>
<path fill="#151515" opacity="1.000000" stroke="none" 
	d="
M129.930099,94.003372 
	C127.778290,105.067108 122.187325,114.299271 114.599434,122.408157 
	C113.754852,123.310722 112.181702,123.531517 110.428978,123.679115 
	C107.525955,120.490784 105.619354,116.089920 102.661362,115.205498 
	C95.034477,112.925087 90.569778,107.559006 85.947151,101.525574 
	C84.887527,98.123398 82.947952,94.920006 83.320816,92.013252 
	C83.641754,89.511307 86.599899,87.347641 88.299995,85.153160 
	C82.575432,84.847305 82.563225,84.843117 84.519974,79.135399 
	C85.106110,77.425674 85.781227,75.746460 86.284760,74.402443 
	C84.712311,73.767334 83.366570,73.223793 82.020828,72.680252 
	C83.368271,71.919136 84.645844,70.758263 86.082420,70.507164 
	C87.576515,70.246010 89.224251,70.863861 90.804802,71.097336 
	C93.554153,73.220428 96.343567,75.294510 99.031952,77.492195 
	C100.024063,78.303215 100.674355,79.532921 101.667877,80.341499 
	C102.824280,81.282631 104.152847,82.032333 105.469124,82.750717 
	C106.561371,83.346825 108.210098,83.457924 108.809807,84.333511 
	C112.232346,89.330528 116.591660,88.696068 121.497658,87.178116 
	C124.082512,86.378342 126.951729,86.497604 130.100800,86.240677 
	C130.758759,86.941879 131.008469,87.604294 130.732086,88.587456 
	C128.272263,89.140297 126.268318,89.153137 124.447014,89.736366 
	C123.891281,89.914330 123.837982,91.661285 123.554581,92.689690 
	C125.354698,93.126129 127.152458,93.572830 128.957214,93.989128 
	C129.266174,94.060394 129.605042,94.001915 129.930099,94.003372 
z"/>
<path fill="#0A0A0A" opacity="1.000000" stroke="none" 
	d="
M71.124428,66.942444 
	C70.429779,65.962692 69.571915,64.056046 69.065506,64.145226 
	C63.421265,65.139145 62.052635,61.634815 61.087234,57.257530 
	C60.689663,55.454868 59.606277,53.803467 58.430801,51.724449 
	C58.351238,50.908577 58.675701,50.451527 59.402061,50.062748 
	C62.100010,49.656807 64.396057,49.182587 66.786957,48.688778 
	C65.793739,47.343395 64.951378,46.202358 64.067230,45.042923 
	C64.025444,45.024529 64.067871,45.105381 64.393448,44.953331 
	C65.752548,43.202110 66.786087,41.602940 67.937897,39.710098 
	C68.705231,38.897404 69.354294,38.378376 70.310486,37.923241 
	C71.095345,37.696030 71.573082,37.404930 72.473999,37.050598 
	C73.211334,33.991825 73.525490,30.996275 73.912239,27.601925 
	C74.263023,25.134483 74.541206,23.065840 74.819397,20.997198 
	C74.959351,17.415112 75.099312,13.833026 75.867241,10.090263 
	C76.665550,9.946681 76.835892,9.963775 77.006241,9.980867 
	C76.999725,17.118502 76.989616,24.256136 76.987701,31.393772 
	C76.985809,38.488338 76.989426,38.488338 84.138687,39.978699 
	C80.416924,45.692307 85.829796,44.416443 87.552719,45.278374 
	C86.548080,46.774681 85.688301,48.055252 84.401726,49.971489 
	C87.754593,49.971489 89.881645,49.971489 92.008705,49.971489 
	C91.562653,53.320862 91.116608,56.670231 90.370377,60.678421 
	C87.052429,62.241405 84.034660,63.145576 80.835991,63.821175 
	C80.153763,63.770275 79.652451,63.947948 79.151138,64.125626 
	C79.670418,64.759499 80.189705,65.393379 80.790283,66.416733 
	C80.824226,67.862221 80.776871,68.918243 80.393280,70.016510 
	C76.844872,72.172249 77.210907,73.809036 80.797470,75.488037 
	C80.900635,80.776604 80.409950,85.679146 81.096344,90.410934 
	C81.768974,95.047745 83.639793,99.510750 85.102776,104.360596 
	C85.612785,105.410133 86.004745,106.149124 86.030090,106.897141 
	C84.490242,106.598679 83.317001,106.291183 82.032867,105.604279 
	C81.357666,104.084656 80.793358,102.944427 80.229057,101.804207 
	C79.696861,101.961670 79.164665,102.119133 78.632477,102.276596 
	C79.291374,106.805977 79.950272,111.335350 80.662285,116.229813 
	C81.608757,115.719109 82.281441,115.356140 83.291107,115.036552 
	C84.092636,115.767891 84.557167,116.455849 84.589523,117.241547 
	C74.438759,117.620956 64.720192,117.902618 54.751637,118.121246 
	C54.330772,118.039764 54.159889,118.021309 53.967747,117.658707 
	C54.658466,116.551796 55.370445,115.789009 56.363159,115.015747 
	C56.830379,115.022614 57.016865,115.039963 57.583931,115.116577 
	C60.434433,115.063744 62.904358,114.951637 65.374283,114.839539 
	C65.196548,113.206696 65.018822,111.573845 64.919220,109.659302 
	C66.422882,106.882881 67.883186,104.406235 69.206863,101.858604 
	C69.310966,101.658241 68.463631,100.963547 68.141266,100.388779 
	C68.324974,100.007591 68.342590,99.760460 68.734451,99.668457 
	C69.938164,99.260887 70.684334,98.722427 72.193321,97.633499 
	C71.266251,104.061020 70.445236,109.753197 69.579720,115.753937 
	C72.977234,116.149597 75.214569,116.244392 75.203239,112.443092 
	C75.158630,97.470192 75.184959,82.497086 75.184959,67.324745 
	C73.667114,67.181839 72.395775,67.062141 71.124428,66.942444 
M79.441383,57.724464 
	C73.956581,57.825466 68.471771,57.926464 62.986969,58.027466 
	C63.034740,58.432812 63.082512,58.838158 63.130283,59.243504 
	C71.688797,59.243504 80.247314,59.243504 88.805832,59.243504 
	C88.800003,58.863255 88.794174,58.483002 88.788338,58.102753 
	C85.998680,57.978325 83.209015,57.853897 79.441383,57.724464 
M70.586937,47.085758 
	C70.019844,47.431301 69.452751,47.776844 67.863197,48.745407 
	C71.228966,48.745407 73.371880,48.745407 75.514793,48.745407 
	C75.569511,48.501190 75.624229,48.256973 75.678955,48.012756 
	C74.256226,47.696465 72.833504,47.380169 70.586937,47.085758 
z"/>
<path fill="#F6F7F7" opacity="1.000000" stroke="none" 
	d="
M81.016899,64.049744 
	C84.034660,63.145576 87.052429,62.241405 90.304779,61.073692 
	C94.639862,63.735100 91.531303,67.300827 91.107216,70.849197 
	C89.224251,70.863861 87.576515,70.246010 86.082420,70.507164 
	C84.645844,70.758263 83.368271,71.919136 82.020828,72.680252 
	C83.366570,73.223793 84.712311,73.767334 86.284760,74.402443 
	C85.781227,75.746460 85.106110,77.425674 84.519974,79.135399 
	C82.563225,84.843117 82.575432,84.847305 88.299995,85.153160 
	C86.599899,87.347641 83.641754,89.511307 83.320816,92.013252 
	C82.947952,94.920006 84.887527,98.123398 85.822418,101.805923 
	C85.542503,102.959213 85.263611,103.504623 84.984726,104.050034 
	C83.639793,99.510750 81.768974,95.047745 81.096344,90.410934 
	C80.409950,85.679146 80.900635,80.776604 80.894295,75.074478 
	C80.851570,72.791512 80.790535,71.382881 80.729507,69.974258 
	C80.776871,68.918243 80.824226,67.862221 80.888107,66.096008 
	C80.942062,64.940460 80.979485,64.495102 81.016899,64.049744 
z"/>
<path fill="#151515" opacity="1.000000" stroke="none" 
	d="
M130.414108,67.988365 
	C127.793282,68.430008 124.830368,68.767296 121.430870,69.198776 
	C113.585258,69.292976 106.176231,69.292976 98.240082,69.292976 
	C100.274033,65.253510 102.689560,63.685528 105.097992,65.708252 
	C108.997635,63.765171 111.927887,62.232456 114.933517,60.865486 
	C115.576286,60.573158 117.025734,60.609013 117.202850,60.954895 
	C119.921371,66.264000 126.717430,63.893646 130.414108,67.988365 
z"/>
<path fill="#EAECEA" opacity="1.000000" stroke="none" 
	d="
M74.474945,20.902153 
	C74.541206,23.065840 74.263023,25.134483 73.579056,27.648144 
	C70.782242,29.728777 68.391212,31.364389 66.040009,32.643890 
	C67.196442,30.496386 68.446175,28.772678 69.399170,26.898117 
	C70.918114,23.910303 72.811470,20.794544 69.000610,17.999817 
	C69.000259,17.250376 68.999916,16.500935 68.998833,15.376841 
	C70.326012,15.797258 71.871132,16.382557 72.909248,17.457493 
	C73.663628,18.238630 73.747604,19.667208 74.474945,20.902153 
z"/>
<path fill="#F0F1F0" opacity="1.000000" stroke="none" 
	d="
M92.002365,49.591095 
	C89.881645,49.971489 87.754593,49.971489 84.401726,49.971489 
	C85.688301,48.055252 86.548080,46.774681 87.552719,45.278374 
	C85.829796,44.416443 80.416924,45.692307 84.411575,40.318787 
	C89.453545,41.193840 90.321434,45.523849 92.002365,49.591095 
z"/>
<path fill="#EAECEA" opacity="1.000000" stroke="none" 
	d="
M76.992142,9.745686 
	C76.835892,9.963775 76.665550,9.946681 76.246338,9.866318 
	C76.198090,9.440847 76.398735,9.078649 76.599373,8.716450 
	C76.725594,8.981134 76.851814,9.245818 76.992142,9.745686 
z"/>
<path fill="#EAEBE9" opacity="1.000000" stroke="none" 
	d="
M68.958923,18.351707 
	C72.811470,20.794544 70.918114,23.910303 69.399170,26.898117 
	C68.446175,28.772678 67.196442,30.496386 65.888672,32.943756 
	C61.572403,37.763012 56.353863,41.091297 55.458004,47.684345 
	C55.340168,48.551548 53.852974,49.232685 52.617996,50.056740 
	C47.230644,53.125957 51.785023,57.596844 50.872692,60.483158 
	C48.883312,61.918858 47.441654,62.959274 46.000000,63.999695 
	C43.945103,64.332993 41.890209,64.666290 39.243736,64.761414 
	C38.101440,64.348824 37.550720,64.174416 37.000000,64.000000 
	C36.675301,64.052689 36.208332,63.984859 36.046680,64.175682 
	C31.844553,69.135941 26.856768,67.864891 21.394386,66.008804 
	C21.001236,64.934654 21.002548,63.869308 21.005966,62.404663 
	C24.382433,62.373886 27.085232,61.582451 28.495275,58.078365 
	C29.765999,54.920509 32.112873,56.238930 34.625469,56.953529 
	C35.749767,57.000038 36.499989,57.000080 37.851494,57.239666 
	C39.300106,56.433666 40.349590,55.491009 40.946537,54.318039 
	C41.803848,52.633461 42.331413,50.781063 42.999733,49.000305 
	C46.908321,48.405693 48.622601,45.775948 50.198982,42.366142 
	C51.484337,39.585850 54.042370,37.388828 56.071991,34.963219 
	C56.376328,34.599510 57.195202,34.444118 57.240234,34.118298 
	C58.254307,26.781454 66.100533,24.643459 68.958923,18.351707 
z"/>
<path fill="#FCFCFC" opacity="1.000000" stroke="none" 
	d="
M70.827103,67.192551 
	C72.395775,67.062141 73.667114,67.181839 75.184959,67.324745 
	C75.184959,82.497086 75.158630,97.470192 75.203239,112.443092 
	C75.214569,116.244392 72.977234,116.149597 69.579720,115.753937 
	C70.445236,109.753197 71.266251,104.061020 72.193321,97.633499 
	C70.684334,98.722427 69.938164,99.260887 68.639359,98.963928 
	C68.395615,96.417030 68.704521,94.705551 69.316643,92.741638 
	C69.742874,90.326569 69.865883,88.163933 69.993088,85.600960 
	C69.992844,84.132919 69.988403,83.065224 69.987801,81.597961 
	C69.989609,80.132828 69.987579,79.067268 69.987183,77.663589 
	C69.654755,76.548592 69.320702,75.771706 69.127739,74.799911 
	C69.496391,74.376549 69.747078,74.177185 70.315247,73.955673 
	C70.903481,73.485176 71.197372,73.065933 71.491272,72.646690 
	C70.959641,72.454170 70.428009,72.261650 69.921097,72.053909 
	C69.945801,72.038689 69.922546,72.092094 69.922546,72.092094 
	C70.124954,70.542282 70.327362,68.992477 70.827103,67.192551 
M71.231102,92.901573 
	C71.315987,93.684044 71.400871,94.466507 71.485756,95.248978 
	C71.922081,95.099037 72.358414,94.949104 72.794746,94.799164 
	C72.419144,94.015823 72.043533,93.232475 71.231102,92.901573 
z"/>
<path fill="#ECEDEB" opacity="1.000000" stroke="none" 
	d="
M53.000000,50.000000 
	C53.852974,49.232685 55.340168,48.551548 55.458004,47.684345 
	C56.353863,41.091297 61.572403,37.763012 65.848839,33.299866 
	C68.391212,31.364389 70.782242,29.728777 73.506454,28.046944 
	C73.525490,30.996275 73.211334,33.991825 72.314331,36.820118 
	C71.155434,37.055027 70.579391,37.457191 70.003357,37.859352 
	C69.354294,38.378376 68.705231,38.897404 67.561798,39.719841 
	C63.640736,40.284927 64.001259,42.781891 64.067871,45.105381 
	C64.067871,45.105381 64.025444,45.024529 63.716759,45.058887 
	C61.938770,46.726990 60.469471,48.360733 59.000168,49.994476 
	C58.675701,50.451527 58.351238,50.908577 58.072422,51.660728 
	C56.923325,54.134789 55.728580,56.313751 53.945152,58.564079 
	C53.237652,55.756962 53.118824,52.878483 53.000000,50.000000 
z"/>
<path fill="#181817" opacity="1.000000" stroke="none" 
	d="
M27.785250,97.588699 
	C24.226534,98.172157 22.402281,96.492615 21.856632,93.087212 
	C21.575964,91.335533 21.227188,89.594765 20.960621,87.444611 
	C26.642561,83.740990 31.877514,86.933159 37.742516,88.323181 
	C38.495651,89.039589 38.746483,89.461823 38.676514,90.016441 
	C34.832230,92.628777 31.308741,95.108742 27.785250,97.588699 
z"/>
<path fill="#0A0A0A" opacity="1.000000" stroke="none" 
	d="
M28.631828,71.894600 
	C31.403297,70.233734 33.808952,68.645531 36.560303,67.078217 
	C41.255821,68.907013 44.071869,73.541969 49.572758,74.276108 
	C49.856739,75.083916 49.876190,75.415138 49.942554,75.743607 
	C41.613873,75.818695 33.285191,75.893784 24.456692,75.587097 
	C23.935806,74.742699 23.914740,74.280067 23.893673,73.817444 
	C25.351122,73.200714 26.808567,72.583984 28.631828,71.894600 
z"/>
<path fill="#1B1B1A" opacity="1.000000" stroke="none" 
	d="
M38.997311,89.884064 
	C38.746483,89.461823 38.495651,89.039589 38.131870,88.398712 
	C44.459755,84.362740 50.794212,80.347504 57.383045,76.805473 
	C61.080933,74.817566 65.199532,73.612267 69.525558,72.073227 
	C69.922546,72.092094 69.945801,72.038689 69.962761,72.375198 
	C69.993446,73.143448 70.007172,73.575188 70.020905,74.006927 
	C69.747078,74.177185 69.496391,74.376549 68.832848,74.780487 
	C67.873360,75.163147 67.349869,75.370323 66.440765,75.583229 
	C61.319118,78.372726 56.583080,81.156502 51.580864,84.017868 
	C50.874119,84.430061 50.433556,84.764664 49.720116,85.092827 
	C49.237747,85.369736 49.028255,85.653076 48.514595,86.026413 
	C47.137878,86.779228 46.065334,87.442047 44.717400,88.093697 
	C44.228092,88.364685 44.014175,88.646851 43.437469,88.959686 
	C41.715557,89.288261 40.356434,89.586159 38.997311,89.884064 
z"/>
<path fill="#EAEBEA" opacity="1.000000" stroke="none" 
	d="
M52.617996,50.056740 
	C53.118824,52.878483 53.237652,55.756962 53.678085,58.817749 
	C53.999714,59.444420 53.999737,59.888783 53.682632,60.713524 
	C52.910324,61.729416 52.455143,62.364929 51.999962,63.000446 
	C50.260715,63.333626 48.521473,63.666805 46.391113,63.999840 
	C47.441654,62.959274 48.883312,61.918858 50.872692,60.483158 
	C51.785023,57.596844 47.230644,53.125957 52.617996,50.056740 
z"/>
<path fill="#ECEDEB" opacity="1.000000" stroke="none" 
	d="
M37.001152,64.361931 
	C37.550720,64.174416 38.101440,64.348824 38.826080,64.761467 
	C38.577171,65.616310 38.154343,66.232933 37.427727,66.866905 
	C37.083401,66.164131 37.042854,65.443993 37.001152,64.361931 
z"/>
<path fill="#ECEDEB" opacity="1.000000" stroke="none" 
	d="
M52.188385,63.174751 
	C52.455143,62.364929 52.910324,61.729416 53.682602,61.046799 
	C53.458733,61.782818 52.917770,62.565937 52.188385,63.174751 
z"/>
<path fill="#313234" opacity="1.000000" stroke="none" 
	d="
M23.587135,73.960358 
	C23.914740,74.280067 23.935806,74.742699 23.990797,75.551041 
	C23.462952,75.880051 22.901180,75.863358 22.339409,75.846664 
	C22.653139,75.265533 22.966869,74.684402 23.587135,73.960358 
z"/>
<path fill="#313234" opacity="1.000000" stroke="none" 
	d="
M50.219727,75.796967 
	C49.876190,75.415138 49.856739,75.083916 49.912590,74.502159 
	C50.126282,74.786362 50.311592,75.318344 50.219727,75.796967 
z"/>
<path fill="#EAEBEA" opacity="1.000000" stroke="none" 
	d="
M42.939331,48.653584 
	C42.331413,50.781063 41.803848,52.633461 40.946537,54.318039 
	C40.349590,55.491009 39.300106,56.433666 38.226601,57.239845 
	C37.861752,55.364101 37.837307,53.707809 37.556442,52.096214 
	C37.177326,49.920876 36.600994,47.779907 36.109295,45.624191 
	C38.365841,46.518414 40.622383,47.412636 42.939331,48.653584 
z"/>
<path fill="#171717" opacity="1.000000" stroke="none" 
	d="
M108.724442,124.140320 
	C108.705986,125.337624 109.177475,127.217888 108.598206,127.633423 
	C88.391205,142.129181 64.225548,142.619522 43.704910,127.454643 
	C43.270790,127.133835 43.186047,126.340263 43.386513,125.334793 
	C45.275562,125.276268 46.716415,125.650169 47.907822,126.095154 
	C47.681942,126.364067 47.705509,126.561897 47.729073,126.759727 
	C48.096535,126.485954 48.463997,126.212181 49.163963,125.771667 
	C51.336090,125.713654 53.175716,125.822380 55.151661,126.238312 
	C56.531788,125.982704 57.775597,125.419899 59.462555,124.934830 
	C62.606174,125.001015 65.306641,124.989464 67.998589,125.328125 
	C68.145271,126.106689 68.300468,126.535034 68.455658,126.963379 
	C68.895340,126.617516 69.335022,126.271652 69.929718,125.538620 
	C73.728073,124.750038 77.371414,124.348625 80.934471,124.016762 
	C80.854179,124.086311 80.951523,124.275154 81.102036,124.438515 
	C81.483742,124.798424 81.748245,124.925842 82.196335,125.036057 
	C82.346611,125.087990 82.664383,125.100227 82.690735,125.499420 
	C83.088577,126.242821 83.460068,126.587013 83.831558,126.931213 
	C83.918785,126.280991 84.006004,125.630760 84.154129,124.871094 
	C84.215042,124.761650 84.017982,124.606995 84.453308,124.426971 
	C87.737930,123.773933 90.587212,123.300911 93.473076,122.819077 
	C93.509651,122.810257 93.595863,122.725372 93.853210,122.345215 
	C93.881744,121.761818 93.652924,121.558571 93.484123,121.396706 
	C93.544136,121.438087 93.677925,121.496010 93.409805,121.977997 
	C93.712379,122.713127 94.283066,122.966270 94.802521,123.257797 
	C94.751282,123.296181 94.772514,123.422455 94.453476,123.864990 
	C94.684425,124.743454 95.270676,125.594467 95.778702,125.550087 
	C100.102005,125.172432 104.411095,124.631989 108.724442,124.140320 
z"/>
<path fill="#141414" opacity="1.000000" stroke="none" 
	d="
M69.013420,92.994064 
	C68.704521,94.705551 68.395615,96.417030 68.181808,98.833038 
	C68.342590,99.760460 68.324974,100.007591 67.749680,100.255753 
	C65.508797,102.819160 63.742287,105.405762 61.725739,108.058380 
	C61.315067,108.416061 61.154438,108.707726 60.733376,109.108109 
	C60.388557,109.384979 60.304176,109.553139 59.998108,109.808334 
	C59.489422,110.251053 59.202423,110.606750 58.428642,111.237587 
	C58.266987,112.205070 58.592117,112.897400 58.917244,113.589737 
	C59.884487,112.778709 60.851730,111.967682 61.876038,111.164566 
	C61.933098,111.172485 61.998447,110.980751 62.297058,110.878555 
	C63.344139,110.497910 64.092613,110.219460 64.841087,109.941002 
	C65.018822,111.573845 65.196548,113.206696 65.374283,114.839539 
	C62.904358,114.951637 60.434433,115.063744 57.813557,114.597389 
	C56.170773,114.141258 54.678940,114.263588 52.861275,114.390572 
	C51.689438,114.594681 50.843437,114.794136 49.734982,114.923386 
	C49.310631,114.934372 49.148735,115.015579 48.649178,115.063538 
	C47.068848,116.521454 45.826176,118.012604 44.569931,119.560486 
	C44.556366,119.617203 44.521164,119.712982 44.487125,119.713112 
	C44.453087,119.713242 44.394367,119.678810 44.206627,119.976791 
	C43.635124,121.093056 43.251362,121.911346 42.867599,122.729637 
	C41.520302,122.764404 39.619534,123.387619 38.922012,122.731552 
	C35.983292,119.967522 33.403614,116.821747 31.001389,113.450089 
	C35.374538,112.697289 40.639511,113.902107 39.565014,106.734230 
	C39.500748,106.305534 40.498894,105.717590 41.367920,105.119720 
	C46.980492,102.210442 52.227814,99.385185 58.284309,96.124260 
	C57.137459,98.732941 56.507412,100.166069 55.877365,101.599205 
	C56.245323,101.968437 56.613277,102.337669 56.981236,102.706894 
	C58.674950,101.188507 60.368668,99.670128 62.336189,98.045242 
	C63.090309,97.339714 63.570621,96.740685 64.376541,96.051773 
	C66.139244,94.972610 67.576332,93.983337 69.013420,92.994064 
z"/>
<path fill="#181817" opacity="1.000000" stroke="none" 
	d="
M41.002670,105.203743 
	C40.498894,105.717590 39.500748,106.305534 39.565014,106.734230 
	C40.639511,113.902107 35.374538,112.697289 30.851875,113.124405 
	C28.514929,109.648811 26.636316,106.133339 24.653097,102.422119 
	C26.833132,101.386620 28.445742,100.620644 30.616268,99.621231 
	C38.451817,95.885841 45.729446,92.383888 53.282280,88.930954 
	C53.747459,88.667580 53.937439,88.355194 54.348694,88.011467 
	C54.569973,87.980133 54.997967,87.851257 55.350220,87.830299 
	C57.288986,87.120056 58.875496,86.430779 60.462009,85.741493 
	C60.764687,86.235344 61.067360,86.729187 61.370037,87.223038 
	C54.761009,92.630348 48.140759,98.024132 41.570793,103.478500 
	C41.176060,103.806213 41.182766,104.617485 41.002670,105.203743 
z"/>
<path fill="#EEEFEF" opacity="1.000000" stroke="none" 
	d="
M93.424110,121.355324 
	C93.652924,121.558571 93.881744,121.761818 93.656662,121.864136 
	C91.488266,120.817741 89.035812,118.630943 88.184319,119.137154 
	C84.031975,121.605652 80.316238,119.866180 76.427773,118.949791 
	C75.646156,118.765587 74.676720,118.675514 73.984932,118.978394 
	C72.958366,119.427834 72.102249,120.266602 71.173584,120.939651 
	C72.072617,121.625900 72.883186,122.684593 73.888496,122.923386 
	C76.213799,123.475685 78.633400,123.630936 81.014763,123.947205 
	C77.371414,124.348625 73.728073,124.750038 69.745605,125.386551 
	C68.940025,125.407066 68.473564,125.192490 68.007103,124.977905 
	C65.306641,124.989464 62.606174,125.001015 59.462147,124.643379 
	C58.965202,123.889404 58.911823,123.504616 58.917473,123.066406 
	C58.976494,123.012978 59.085617,122.897026 59.531853,122.938156 
	C62.447140,122.961502 64.950027,123.170944 67.368134,122.810966 
	C68.298645,122.672440 69.036217,121.237968 69.861694,120.393967 
	C68.948616,119.909393 68.070923,119.100822 67.116325,118.996590 
	C63.087387,118.556694 59.042995,121.054787 54.996933,118.776108 
	C54.999191,118.578842 55.001621,118.184288 55.001621,118.184288 
	C64.720192,117.902618 74.438759,117.620956 85.003113,117.358147 
	C87.558990,117.298553 89.269089,117.220108 91.301987,117.338684 
	C93.672180,117.535706 95.719582,117.535706 98.742874,117.535706 
	C94.467186,114.059692 91.258804,111.451370 87.981339,108.585144 
	C87.407074,107.847534 86.901886,107.367821 86.396706,106.888107 
	C86.004745,106.149124 85.612785,105.410133 85.102776,104.360596 
	C85.263611,103.504623 85.542503,102.959213 85.946121,102.133453 
	C90.569778,107.559006 95.034477,112.925087 102.661362,115.205498 
	C105.619354,116.089920 107.525955,120.490784 110.051682,123.610931 
	C109.947350,123.967377 109.702858,124.002632 109.091408,124.089111 
	C104.411095,124.631989 100.102005,125.172432 95.778702,125.550087 
	C95.270676,125.594467 94.684425,124.743454 94.866356,123.771706 
	C98.287514,122.984184 100.976761,122.732483 104.909653,122.364380 
	C100.403046,119.167877 96.980652,119.296646 93.424110,121.355324 
z"/>
<path fill="#EEEFEF" opacity="1.000000" stroke="none" 
	d="
M53.007076,88.881935 
	C45.729446,92.383888 38.451817,95.885841 30.797863,99.313705 
	C29.694798,98.912621 28.968052,98.585617 28.013279,97.923660 
	C31.308741,95.108742 34.832230,92.628777 38.676514,90.016441 
	C40.356434,89.586159 41.715557,89.288261 43.677879,88.890076 
	C44.518314,88.561485 44.755550,88.333176 44.992790,88.104866 
	C46.065334,87.442047 47.137878,86.779228 48.752510,85.953323 
	C49.601379,85.634697 49.834179,85.404373 49.992992,85.099258 
	C50.433556,84.764664 50.874119,84.430061 51.964226,84.041130 
	C53.408501,85.274948 54.203232,86.563103 54.997967,87.851257 
	C54.997967,87.851257 54.569973,87.980133 54.120995,88.090271 
	C53.380417,88.359344 53.158772,88.586517 53.007076,88.881935 
z"/>
<path fill="#1D1D1E" opacity="1.000000" stroke="none" 
	d="
M130.095184,93.672791 
	C129.605042,94.001915 129.266174,94.060394 128.957214,93.989128 
	C127.152458,93.572830 125.354698,93.126129 123.554581,92.689690 
	C123.837982,91.661285 123.891281,89.914330 124.447014,89.736366 
	C126.268318,89.153137 128.272263,89.140297 130.567429,88.952042 
	C130.705978,90.444649 130.483124,91.893425 130.095184,93.672791 
z"/>
<path fill="#EEEFEF" opacity="1.000000" stroke="none" 
	d="
M42.900070,123.113586 
	C43.251362,121.911346 43.635124,121.093056 44.385376,120.457893 
	C46.279797,125.095528 50.005142,122.536057 52.714821,123.004272 
	C54.695229,123.346466 56.518684,123.129448 55.015343,125.931107 
	C53.175716,125.822380 51.336090,125.713654 48.991661,125.763550 
	C48.486862,125.922180 48.157269,126.024078 48.157269,126.024078 
	C46.716415,125.650169 45.275562,125.276268 43.423050,124.969376 
	C42.985111,124.523430 42.958824,124.010483 42.900070,123.113586 
z"/>
<path fill="#1D1D1E" opacity="1.000000" stroke="none" 
	d="
M90.979187,117.141663 
	C89.269089,117.220108 87.558990,117.298553 85.435303,117.260406 
	C84.557167,116.455849 84.092636,115.767891 83.206131,114.649521 
	C82.779205,113.173309 82.774239,112.127495 83.027748,110.913315 
	C82.998154,110.196480 82.710091,109.648003 82.307709,108.802246 
	C82.176842,107.664543 82.160301,106.824120 82.143768,105.983688 
	C83.317001,106.291183 84.490242,106.598679 86.030090,106.897141 
	C86.901886,107.367821 87.407074,107.847534 87.962097,108.967819 
	C89.001007,112.119484 89.990097,114.630569 90.979187,117.141663 
z"/>
<path fill="#E8E9E7" opacity="1.000000" stroke="none" 
	d="
M79.930367,57.726967 
	C83.209015,57.853897 85.998680,57.978325 88.788338,58.102753 
	C88.794174,58.483002 88.800003,58.863255 88.805832,59.243504 
	C80.247314,59.243504 71.688797,59.243504 63.130283,59.243504 
	C63.082512,58.838158 63.034740,58.432812 62.986969,58.027466 
	C68.471771,57.926464 73.956581,57.825466 79.930367,57.726967 
z"/>
<path fill="#D5D6D6" opacity="1.000000" stroke="none" 
	d="
M82.032867,105.604279 
	C82.160301,106.824120 82.176842,107.664543 82.282455,109.144394 
	C82.504120,110.216431 82.636696,110.649063 82.769272,111.081688 
	C82.774239,112.127495 82.779205,113.173309 82.869148,114.606140 
	C82.281441,115.356140 81.608757,115.719109 80.662285,116.229813 
	C79.950272,111.335350 79.291374,106.805977 78.632477,102.276596 
	C79.164665,102.119133 79.696861,101.961670 80.229057,101.804207 
	C80.793358,102.944427 81.357666,104.084656 82.032867,105.604279 
z"/>
<path fill="#ECEEED" opacity="1.000000" stroke="none" 
	d="
M54.751637,118.121246 
	C55.001621,118.184288 54.999191,118.578842 54.904442,119.160202 
	C51.852314,120.118469 48.894932,120.495377 45.741241,120.620972 
	C45.224457,120.081024 44.903976,119.792389 44.583500,119.503761 
	C45.826176,118.012604 47.068848,116.521454 48.677715,115.448273 
	C50.490917,116.564087 51.937927,117.261909 53.537682,117.946350 
	C53.690422,117.932976 53.989006,118.002846 53.989006,118.002846 
	C54.159889,118.021309 54.330772,118.039764 54.751637,118.121246 
z"/>
<path fill="#FCFCFC" opacity="1.000000" stroke="none" 
	d="
M61.975784,107.992371 
	C63.742287,105.405762 65.508797,102.819160 67.666885,100.365570 
	C68.463631,100.963547 69.310966,101.658241 69.206863,101.858604 
	C67.883186,104.406235 66.422882,106.882881 64.919220,109.659302 
	C64.092613,110.219460 63.344139,110.497910 62.056999,110.595840 
	C61.085487,110.183983 60.652641,109.952644 60.219795,109.721306 
	C60.304176,109.553139 60.388557,109.384979 60.959888,109.107742 
	C61.623150,108.663223 61.799465,108.327797 61.975784,107.992371 
z"/>
<path fill="#F0F1F0" opacity="1.000000" stroke="none" 
	d="
M59.402061,50.062752 
	C60.469471,48.360733 61.938770,46.726990 63.758545,45.077282 
	C64.951378,46.202358 65.793739,47.343395 66.786957,48.688778 
	C64.396057,49.182587 62.100010,49.656807 59.402061,50.062752 
z"/>
<path fill="#F0F1F0" opacity="1.000000" stroke="none" 
	d="
M64.393448,44.953331 
	C64.001259,42.781891 63.640736,40.284927 67.443527,40.013512 
	C66.786087,41.602940 65.752548,43.202110 64.393448,44.953331 
z"/>
<path fill="#1D1D1E" opacity="1.000000" stroke="none" 
	d="
M80.393272,70.016510 
	C80.790535,71.382881 80.851570,72.791512 80.815765,74.613693 
	C77.210907,73.809036 76.844872,72.172249 80.393272,70.016510 
z"/>
<path fill="#E8E8E6" opacity="1.000000" stroke="none" 
	d="
M70.998856,47.074818 
	C72.833504,47.380169 74.256226,47.696465 75.678955,48.012756 
	C75.624229,48.256973 75.569511,48.501190 75.514793,48.745407 
	C73.371880,48.745407 71.228966,48.745407 67.863197,48.745407 
	C69.452751,47.776844 70.019844,47.431301 70.998856,47.074818 
z"/>
<path fill="#FCFCFC" opacity="1.000000" stroke="none" 
	d="
M53.967747,117.658707 
	C53.989006,118.002846 53.690422,117.932976 53.422737,117.609451 
	C52.102512,116.521805 51.049973,115.757698 49.997433,114.993591 
	C50.843437,114.794136 51.689438,114.594681 53.326622,114.573624 
	C54.772675,114.843414 55.427547,114.934822 56.082424,115.026230 
	C55.370445,115.789009 54.658466,116.551796 53.967747,117.658707 
z"/>
<path fill="#1D1D1E" opacity="1.000000" stroke="none" 
	d="
M80.835991,63.821175 
	C80.979485,64.495102 80.942062,64.940460 80.806808,65.706535 
	C80.189705,65.393379 79.670418,64.759499 79.151138,64.125626 
	C79.652451,63.947948 80.153763,63.770275 80.835991,63.821175 
z"/>
<path fill="#F0F1F0" opacity="1.000000" stroke="none" 
	d="
M70.310486,37.923241 
	C70.579391,37.457191 71.155434,37.055027 71.891144,36.883347 
	C71.573082,37.404930 71.095345,37.696030 70.310486,37.923241 
z"/>
<path fill="#ECEEED" opacity="1.000000" stroke="none" 
	d="
M56.363159,115.015747 
	C55.427547,114.934822 54.772675,114.843414 53.652451,114.568962 
	C54.678940,114.263588 56.170773,114.141258 57.432976,114.538124 
	C57.016865,115.039963 56.830379,115.022614 56.363159,115.015747 
z"/>
<path fill="#ECEEED" opacity="1.000000" stroke="none" 
	d="
M55.350220,87.830299 
	C54.203232,86.563103 53.408501,85.274948 52.230408,83.963531 
	C56.583080,81.156502 61.319118,78.372726 66.583481,75.910583 
	C68.069725,76.822044 69.027641,77.411873 69.985550,78.001701 
	C69.987579,79.067268 69.989609,80.132828 69.628357,81.608109 
	C68.578186,82.653633 67.891289,83.289429 67.204391,83.925232 
	C68.132561,84.617249 69.060722,85.309273 69.988892,86.001297 
	C69.865883,88.163933 69.742874,90.326569 69.316643,92.741638 
	C67.576332,93.983337 66.139244,94.972610 64.319290,95.712784 
	C62.976322,94.659676 62.016228,93.855675 61.056133,93.051674 
	C60.769112,93.313736 60.482090,93.575798 60.195065,93.837860 
	C60.817505,95.275818 61.439945,96.713783 62.062386,98.151741 
	C60.368668,99.670128 58.674950,101.188507 56.981236,102.706894 
	C56.613277,102.337669 56.245323,101.968437 55.877365,101.599205 
	C56.507412,100.166069 57.137459,98.732941 58.284309,96.124260 
	C52.227814,99.385185 46.980492,102.210442 41.367920,105.119720 
	C41.182766,104.617485 41.176060,103.806213 41.570793,103.478500 
	C48.140759,98.024132 54.761009,92.630348 61.370037,87.223038 
	C61.067360,86.729187 60.764687,86.235344 60.462009,85.741493 
	C58.875496,86.430779 57.288986,87.120056 55.350220,87.830299 
z"/>
<path fill="#EEEFEF" opacity="1.000000" stroke="none" 
	d="
M69.993088,85.600960 
	C69.060722,85.309273 68.132561,84.617249 67.204391,83.925232 
	C67.891289,83.289429 68.578186,82.653633 69.624527,82.007675 
	C69.988403,83.065224 69.992844,84.132919 69.993088,85.600960 
z"/>
<path fill="#EEEFEF" opacity="1.000000" stroke="none" 
	d="
M69.987183,77.663589 
	C69.027641,77.411873 68.069725,76.822044 66.969086,75.904861 
	C67.349869,75.370323 67.873360,75.163147 68.691750,74.975403 
	C69.320702,75.771706 69.654755,76.548592 69.987183,77.663589 
z"/>
<path fill="#ECEEED" opacity="1.000000" stroke="none" 
	d="
M71.449516,92.675354 
	C72.043533,93.232475 72.419144,94.015823 72.794746,94.799164 
	C72.358414,94.949104 71.922081,95.099037 71.485756,95.248978 
	C71.400871,94.466507 71.315987,93.684044 71.449516,92.675354 
z"/>
<path fill="#ECEEED" opacity="1.000000" stroke="none" 
	d="
M70.315247,73.955673 
	C70.007172,73.575188 69.993446,73.143448 69.938049,72.390419 
	C70.428009,72.261650 70.959641,72.454170 71.491272,72.646690 
	C71.197372,73.065933 70.903481,73.485176 70.315247,73.955673 
z"/>
<path fill="#ECEEED" opacity="1.000000" stroke="none" 
	d="
M44.717400,88.093697 
	C44.755550,88.333176 44.518314,88.561485 44.040672,88.859406 
	C44.014175,88.646851 44.228092,88.364685 44.717400,88.093697 
z"/>
<path fill="#ECEEED" opacity="1.000000" stroke="none" 
	d="
M49.720116,85.092827 
	C49.834179,85.404373 49.601379,85.634697 49.056679,85.863327 
	C49.028255,85.653076 49.237747,85.369736 49.720116,85.092827 
z"/>
<path fill="#D5D6D6" opacity="1.000000" stroke="none" 
	d="
M45.937550,120.872284 
	C48.894932,120.495377 51.852314,120.118469 54.902187,119.357468 
	C59.042995,121.054787 63.087387,118.556694 67.116325,118.996590 
	C68.070923,119.100822 68.948616,119.909393 69.861694,120.393967 
	C69.036217,121.237968 68.298645,122.672440 67.368134,122.810966 
	C64.950027,123.170944 62.447140,122.961502 59.444862,122.810562 
	C58.805134,122.607239 58.698631,122.572639 58.592125,122.538040 
	C58.680897,122.731972 58.769672,122.925903 58.858448,123.119835 
	C58.911823,123.504616 58.965202,123.889404 59.018990,124.565636 
	C57.775597,125.419899 56.531788,125.982704 55.151661,126.238312 
	C56.518684,123.129448 54.695229,123.346466 52.714821,123.004272 
	C50.005142,122.536057 46.279797,125.095528 44.573120,120.159912 
	C44.394367,119.678810 44.453087,119.713242 44.768723,120.098816 
	C45.368759,120.613686 45.653152,120.742981 45.937550,120.872284 
z"/>
<path fill="#D5D6D6" opacity="1.000000" stroke="none" 
	d="
M80.934471,124.016754 
	C78.633400,123.630936 76.213799,123.475685 73.888496,122.923386 
	C72.883186,122.684593 72.072617,121.625900 71.173584,120.939651 
	C72.102249,120.266602 72.958366,119.427834 73.984932,118.978394 
	C74.676720,118.675514 75.646156,118.765587 76.427773,118.949791 
	C80.316238,119.866180 84.031975,121.605652 88.184319,119.137154 
	C89.035812,118.630943 91.488266,120.817741 93.399315,122.244293 
	C93.595863,122.725372 93.509651,122.810257 92.985962,122.867233 
	C89.647507,123.485146 86.832741,124.046066 84.017982,124.606995 
	C84.017982,124.606995 84.215042,124.761650 83.795441,124.883316 
	C83.138680,125.036728 82.901527,125.068481 82.664383,125.100227 
	C82.664383,125.100227 82.346611,125.087990 82.153198,124.765640 
	C81.623703,124.387253 81.287613,124.331200 80.951523,124.275146 
	C80.951523,124.275154 80.854179,124.086311 80.934471,124.016754 
z"/>
<path fill="#D5D6D6" opacity="1.000000" stroke="none" 
	d="
M93.484123,121.396706 
	C96.980652,119.296646 100.403046,119.167877 104.909653,122.364380 
	C100.976761,122.732483 98.287514,122.984184 95.185394,123.329178 
	C94.772514,123.422455 94.751282,123.296181 94.679916,122.926643 
	C94.298347,122.203407 93.988136,121.849709 93.677925,121.496010 
	C93.677925,121.496010 93.544136,121.438087 93.484123,121.396706 
z"/>
<path fill="#EEEFEF" opacity="1.000000" stroke="none" 
	d="
M84.453308,124.426971 
	C86.832741,124.046066 89.647507,123.485146 92.949387,122.876053 
	C90.587212,123.300911 87.737930,123.773933 84.453308,124.426971 
z"/>
<path fill="#D5D6D6" opacity="1.000000" stroke="none" 
	d="
M67.998589,125.328125 
	C68.473564,125.192490 68.940025,125.407066 69.590599,125.773712 
	C69.335022,126.271652 68.895340,126.617516 68.455658,126.963379 
	C68.300468,126.535034 68.145271,126.106689 67.998589,125.328125 
z"/>
<path fill="#D5D6D6" opacity="1.000000" stroke="none" 
	d="
M47.907822,126.095154 
	C48.157269,126.024078 48.486862,125.922180 48.659161,125.930298 
	C48.463997,126.212181 48.096535,126.485954 47.729073,126.759727 
	C47.705509,126.561897 47.681942,126.364067 47.907822,126.095154 
z"/>
<path fill="#EEEFEF" opacity="1.000000" stroke="none" 
	d="
M82.690735,125.499420 
	C82.901527,125.068481 83.138680,125.036728 83.734528,124.992752 
	C84.006004,125.630760 83.918785,126.280991 83.831558,126.931213 
	C83.460068,126.587013 83.088577,126.242821 82.690735,125.499420 
z"/>
<path fill="#1D1D1E" opacity="1.000000" stroke="none" 
	d="
M81.102036,124.438507 
	C81.287613,124.331200 81.623703,124.387253 82.002922,124.713715 
	C81.748245,124.925842 81.483742,124.798424 81.102036,124.438507 
z"/>
<path fill="#EEEFEF" opacity="1.000000" stroke="none" 
	d="
M93.409805,121.977997 
	C93.988136,121.849709 94.298347,122.203407 94.731155,122.888260 
	C94.283066,122.966270 93.712379,122.713127 93.409805,121.977997 
z"/>
<path fill="#EEEFEF" opacity="1.000000" stroke="none" 
	d="
M62.336189,98.045242 
	C61.439945,96.713783 60.817505,95.275818 60.195065,93.837860 
	C60.482090,93.575798 60.769112,93.313736 61.056133,93.051674 
	C62.016228,93.855675 62.976322,94.659676 63.993675,95.802673 
	C63.570621,96.740685 63.090309,97.339714 62.336189,98.045242 
z"/>
<path fill="#D5D6D6" opacity="1.000000" stroke="none" 
	d="
M49.734982,114.923386 
	C51.049973,115.757698 52.102512,116.521805 53.269997,117.622826 
	C51.937927,117.261909 50.490917,116.564087 49.015373,115.481522 
	C49.148735,115.015579 49.310631,114.934372 49.734982,114.923386 
z"/>
<path fill="#FCFCFC" opacity="1.000000" stroke="none" 
	d="
M61.818977,111.156654 
	C60.851730,111.967682 59.884487,112.778709 58.917244,113.589737 
	C58.592117,112.897400 58.266987,112.205070 59.154266,111.290024 
	C60.850780,111.097092 61.334877,111.126877 61.818977,111.156654 
z"/>
<path fill="#ECEEED" opacity="1.000000" stroke="none" 
	d="
M61.876038,111.164566 
	C61.334877,111.126877 60.850780,111.097092 59.641052,111.014877 
	C59.202423,110.606750 59.489422,110.251053 59.998108,109.808334 
	C60.652641,109.952644 61.085487,110.183983 61.758389,110.698044 
	C61.998447,110.980751 61.933098,111.172485 61.876038,111.164566 
z"/>
<path fill="#ECEEED" opacity="1.000000" stroke="none" 
	d="
M61.725739,108.058380 
	C61.799465,108.327797 61.623150,108.663223 61.220322,108.999023 
	C61.154438,108.707726 61.315067,108.416061 61.725739,108.058380 
z"/>
<path fill="#EEEFEF" opacity="1.000000" stroke="none" 
	d="
M45.741241,120.620972 
	C45.653152,120.742981 45.368759,120.613686 44.802765,120.098694 
	C44.521164,119.712982 44.556366,119.617203 44.569931,119.560486 
	C44.903976,119.792389 45.224457,120.081024 45.741241,120.620972 
z"/>
<path fill="#ECEEED" opacity="1.000000" stroke="none" 
	d="
M53.282280,88.930954 
	C53.158772,88.586517 53.380417,88.359344 53.899715,88.121613 
	C53.937439,88.355194 53.747459,88.667580 53.282280,88.930954 
z"/>
<path fill="#0A0A0A" opacity="1.000000" stroke="none" 
	d="
M91.301987,117.338684 
	C89.990097,114.630569 89.001007,112.119484 88.031174,109.225723 
	C91.258804,111.451370 94.467186,114.059692 98.742874,117.535706 
	C95.719582,117.535706 93.672180,117.535706 91.301987,117.338684 
z"/>
<path fill="#0A0A0A" opacity="1.000000" stroke="none" 
	d="
M83.027740,110.913315 
	C82.636696,110.649063 82.504120,110.216431 82.396790,109.441666 
	C82.710091,109.648003 82.998154,110.196480 83.027740,110.913315 
z"/>
<path fill="#EEEFEF" opacity="1.000000" stroke="none" 
	d="
M58.917473,123.066406 
	C58.769672,122.925903 58.680897,122.731972 58.592125,122.538040 
	C58.698631,122.572639 58.805134,122.607239 58.998627,122.769432 
	C59.085617,122.897026 58.976494,123.012978 58.917473,123.066406 
z"/>
</svg>